ffmpeg version 4.2.4-1ubuntu0.1 Copyright (c) 2000-2020 the FFmpeg developers
  built with gcc 9 (Ubuntu 9.3.0-10ubuntu2)
  configuration: --prefix=/usr --extra-version=1ubuntu0.1 --toolchain=hardened --libdir=/usr/lib/x86_64-linux-gnu --incdir=/usr/include/x86_64-linux-gnu --arch=amd64 --enable-gpl --disable-stripping --enable-avresample --disable-filter=resample --enable-avisynth --enable-gnutls --enable-ladspa --enable-libaom --enable-libass --enable-libbluray --enable-libbs2b --enable-libcaca --enable-libcdio --enable-libcodec2 --enable-libflite --enable-libfontconfig --enable-libfreetype --enable-libfribidi --enable-libgme --enable-libgsm --enable-libjack --enable-libmp3lame --enable-libmysofa --enable-libopenjpeg --enable-libopenmpt --enable-libopus --enable-libpulse --enable-librsvg --enable-librubberband --enable-libshine --enable-libsnappy --enable-libsoxr --enable-libspeex --enable-libssh --enable-libtheora --enable-libtwolame --enable-libvidstab --enable-libvorbis --enable-libvpx --enable-libwavpack --enable-libwebp --enable-libx265 --enable-libxml2 --enable-libxvid --enable-libzmq --enable-libzvbi --enable-lv2 --enable-omx --enable-openal --enable-opencl --enable-opengl --enable-sdl2 --enable-libdc1394 --enable-libdrm --enable-libiec61883 --enable-nvenc --enable-chromaprint --enable-frei0r --enable-libx264 --enable-shared
  WARNING: library configuration mismatch
  avcodec     configuration: --prefix=/usr --extra-version=1ubuntu0.1 --toolchain=hardened --libdir=/usr/lib/x86_64-linux-gnu --incdir=/usr/include/x86_64-linux-gnu --arch=amd64 --enable-gpl --disable-stripping --enable-avresample --disable-filter=resample --enable-avisynth --enable-gnutls --enable-ladspa --enable-libaom --enable-libass --enable-libbluray --enable-libbs2b --enable-libcaca --enable-libcdio --enable-libcodec2 --enable-libflite --enable-libfontconfig --enable-libfreetype --enable-libfribidi --enable-libgme --enable-libgsm --enable-libjack --enable-libmp3lame --enable-libmysofa --enable-libopenjpeg --enable-libopenmpt --enable-libopus --enable-libpulse --enable-librsvg --enable-librubberband --enable-libshine --enable-libsnappy --enable-libsoxr --enable-libspeex --enable-libssh --enable-libtheora --enable-libtwolame --enable-libvidstab --enable-libvorbis --enable-libvpx --enable-libwavpack --enable-libwebp --enable-libx265 --enable-libxml2 --enable-libxvid --enable-libzmq --enable-libzvbi --enable-lv2 --enable-omx --enable-openal --enable-opencl --enable-opengl --enable-sdl2 --enable-libdc1394 --enable-libdrm --enable-libiec61883 --enable-nvenc --enable-chromaprint --enable-frei0r --enable-libx264 --enable-shared --enable-version3 --disable-doc --disable-programs --enable-libaribb24 --enable-liblensfun --enable-libopencore_amrnb --enable-libopencore_amrwb --enable-libtesseract --enable-libvo_amrwbenc
  libavutil      56. 31.100 / 56. 31.100
  libavcodec     58. 54.100 / 58. 54.100
  libavformat    58. 29.100 / 58. 29.100
  libavdevice    58.  8.100 / 58.  8.100
  libavfilter     7. 57.100 /  7. 57.100
  libavresample   4.  0.  0 /  4.  0.  0
  libswscale      5.  5.100 /  5.  5.100
  libswresample   3.  5.100 /  3.  5.100
  libpostproc    55.  5.100 / 55.  5.100
Input #0, image2pipe, from 'pipe:':
  Duration: N/A, bitrate: N/A
    Stream #0:0: Video: ppm, rgb24, 600x600, 25 fps, 25 tbr, 25 tbn, 25 tbc
Stream mapping:
  Stream #0:0 -> #0:0 (ppm (native) -> h264 (libx264))
[libx264 @ 0x5555555dd680] using cpu capabilities: MMX2 SSE2Fast SSSE3 SSE4.2 AVX FMA3 BMI2 AVX2 AVX512
[libx264 @ 0x5555555dd680] profile High, level 3.0
Output #0, mpegts, to 'movie.mp4':
  Metadata:
    encoder         : Lavf58.29.100
    Stream #0:0: Video: h264 (libx264), yuv420p, 600x600, q=-1--1, 25 fps, 90k tbn, 25 tbc
    Metadata:
      encoder         : Lavc58.54.100 libx264
    Side data:
      cpb: bitrate max/min/avg: 0/0/0 buffer size: 0 vbv_delay: -1
frame=    7 fps=1.8 q=20.0 size=     174kB time=00:00:00.24 bitrate=5934.3kbits/s speed=0.0615x    frame=    8 fps=1.1 q=20.0 size=     182kB time=00:00:00.28 bitrate=5333.6kbits/s speed=0.0382x    frame=    9 fps=0.8 q=20.0 size=     190kB time=00:00:00.32 bitrate=4859.6kbits/s speed=0.0299x    frame=   10 fps=0.6 q=21.0 size=     199kB time=00:00:00.36 bitrate=4532.8kbits/s speed=0.0227x    frame=   11 fps=0.5 q=21.0 size=     208kB time=00:00:00.40 bitrate=4256.2kbits/s speed=0.0198x    frame=   12 fps=0.5 q=21.0 size=     216kB time=00:00:00.44 bitrate=4016.3kbits/s speed=0.0188x    frame=   13 fps=0.5 q=21.0 size=     224kB time=00:00:00.48 bitrate=3822.6kbits/s speed=0.0177x    frame=   14 fps=0.5 q=21.0 size=     233kB time=00:00:00.52 bitrate=3673.2kbits/s speed=0.0167x    frame=   15 fps=0.4 q=21.0 size=     242kB time=00:00:00.56 bitrate=3539.7kbits/s speed=0.0163x    frame=   16 fps=0.4 q=22.0 size=     250kB time=00:00:00.60 bitrate=3416.5kbits/s speed=0.0155x    frame=   17 fps=0.4 q=22.0 size=     256kB time=00:00:00.64 bitrate=3276.7kbits/s speed=0.0151x    frame=   18 fps=0.4 q=22.0 size=     256kB time=00:00:00.68 bitrate=3084.0kbits/s speed=0.0143x    frame=   19 fps=0.4 q=22.0 size=     256kB time=00:00:00.72 bitrate=2912.7kbits/s speed=0.0136x    frame=   20 fps=0.3 q=22.0 size=     256kB time=00:00:00.76 bitrate=2759.4kbits/s speed=0.0132x    frame=   21 fps=0.3 q=22.0 size=     256kB time=00:00:00.80 bitrate=2621.4kbits/s speed=0.0131x    frame=   22 fps=0.3 q=23.0 size=     256kB time=00:00:00.84 bitrate=2496.6kbits/s speed=0.0129x    frame=   23 fps=0.3 q=23.0 size=     256kB time=00:00:00.88 bitrate=2383.1kbits/s speed=0.0128x    frame=   24 fps=0.3 q=23.0 size=     256kB time=00:00:00.92 bitrate=2279.5kbits/s speed=0.0126x    frame=   25 fps=0.3 q=23.0 size=     256kB time=00:00:00.96 bitrate=2184.5kbits/s speed=0.0124x    frame=   26 fps=0.3 q=23.0 size=     256kB time=00:00:01.00 bitrate=2097.1kbits/s speed=0.0124x    frame=   27 fps=0.3 q=23.0 size=     256kB time=00:00:01.04 bitrate=2016.5kbits/s speed=0.0123x    frame=   28 fps=0.3 q=23.0 size=     256kB time=00:00:01.08 bitrate=1941.8kbits/s speed=0.0123x    frame=   29 fps=0.3 q=23.0 size=     256kB time=00:00:01.12 bitrate=1872.4kbits/s speed=0.0122x    frame=   30 fps=0.3 q=23.0 size=     256kB time=00:00:01.16 bitrate=1807.9kbits/s speed=0.0121x    frame=   31 fps=0.3 q=23.0 size=     256kB time=00:00:01.20 bitrate=1747.6kbits/s speed=0.0121x    frame=   32 fps=0.3 q=23.0 size=     256kB time=00:00:01.24 bitrate=1691.2kbits/s speed=0.012x    frame=   33 fps=0.3 q=23.0 size=     256kB time=00:00:01.28 bitrate=1638.4kbits/s speed=0.0119x    frame=   34 fps=0.3 q=23.0 size=     256kB time=00:00:01.32 bitrate=1588.7kbits/s speed=0.0119x    frame=   35 fps=0.3 q=22.0 size=     256kB time=00:00:01.36 bitrate=1542.0kbits/s speed=0.0119x    frame=   36 fps=0.3 q=22.0 size=     256kB time=00:00:01.40 bitrate=1498.0kbits/s speed=0.0119x    frame=   37 fps=0.3 q=22.0 size=     256kB time=00:00:01.44 bitrate=1456.3kbits/s speed=0.0119x    frame=   38 fps=0.3 q=22.0 size=     256kB time=00:00:01.48 bitrate=1417.0kbits/s speed=0.0119x    frame=   39 fps=0.3 q=22.0 size=     256kB time=00:00:01.52 bitrate=1379.7kbits/s speed=0.0119x    frame=   40 fps=0.3 q=22.0 size=     256kB time=00:00:01.56 bitrate=1344.3kbits/s speed=0.0118x    frame=   41 fps=0.3 q=22.0 size=     256kB time=00:00:01.60 bitrate=1310.7kbits/s speed=0.0118x    frame=   42 fps=0.3 q=22.0 size=     256kB time=00:00:01.64 bitrate=1278.7kbits/s speed=0.0118x    frame=   43 fps=0.3 q=22.0 size=     256kB time=00:00:01.68 bitrate=1248.3kbits/s speed=0.0118x    frame=   44 fps=0.3 q=22.0 size=     256kB time=00:00:01.72 bitrate=1219.3kbits/s speed=0.0117x    frame=   45 fps=0.3 q=22.0 size=     512kB time=00:00:01.76 bitrate=2383.1kbits/s speed=0.0117x    frame=   46 fps=0.3 q=22.0 size=     512kB time=00:00:01.80 bitrate=2330.2kbits/s speed=0.0117x    frame=   47 fps=0.3 q=22.0 size=     512kB time=00:00:01.84 bitrate=2279.5kbits/s speed=0.0117x    frame=   48 fps=0.3 q=22.0 size=     512kB time=00:00:01.88 bitrate=2231.0kbits/s speed=0.0117x    frame=   49 fps=0.3 q=22.0 size=     512kB time=00:00:01.92 bitrate=2184.5kbits/s speed=0.0117x    frame=   50 fps=0.3 q=22.0 size=     512kB time=00:00:01.96 bitrate=2139.9kbits/s speed=0.0117x    frame=   51 fps=0.3 q=22.0 size=     512kB time=00:00:02.00 bitrate=2097.1kbits/s speed=0.0117x    frame=   52 fps=0.3 q=22.0 size=     512kB time=00:00:02.04 bitrate=2056.0kbits/s speed=0.0117x    frame=   53 fps=0.3 q=22.0 size=     512kB time=00:00:02.08 bitrate=2016.5kbits/s speed=0.0117x    frame=   54 fps=0.3 q=22.0 size=     512kB time=00:00:02.12 bitrate=1978.4kbits/s speed=0.0116x    frame=   55 fps=0.3 q=22.0 size=     512kB time=00:00:02.16 bitrate=1941.8kbits/s speed=0.0116x    frame=   56 fps=0.3 q=22.0 size=     512kB time=00:00:02.20 bitrate=1906.5kbits/s speed=0.0116x    frame=   57 fps=0.3 q=22.0 size=     512kB time=00:00:02.24 bitrate=1872.4kbits/s speed=0.0116x    frame=   58 fps=0.3 q=22.0 size=     512kB time=00:00:02.28 bitrate=1839.6kbits/s speed=0.0116x    frame=   59 fps=0.3 q=22.0 size=     512kB time=00:00:02.32 bitrate=1807.9kbits/s speed=0.0116x    frame=   60 fps=0.3 q=22.0 size=     512kB time=00:00:02.36 bitrate=1777.2kbits/s speed=0.0116x    frame=   61 fps=0.3 q=22.0 size=     512kB time=00:00:02.40 bitrate=1747.6kbits/s speed=0.0115x    frame=   62 fps=0.3 q=22.0 size=     512kB time=00:00:02.44 bitrate=1719.0kbits/s speed=0.0115x    frame=   63 fps=0.3 q=22.0 size=     512kB time=00:00:02.48 bitrate=1691.2kbits/s speed=0.0115x    frame=   64 fps=0.3 q=22.0 size=     512kB time=00:00:02.52 bitrate=1664.4kbits/s speed=0.0115x    frame=   65 fps=0.3 q=22.0 size=     512kB time=00:00:02.56 bitrate=1638.4kbits/s speed=0.0114x    frame=   66 fps=0.3 q=22.0 size=     512kB time=00:00:02.60 bitrate=1613.2kbits/s speed=0.0114x    frame=   67 fps=0.3 q=22.0 size=     512kB time=00:00:02.64 bitrate=1588.7kbits/s speed=0.0114x    frame=   68 fps=0.3 q=22.0 size=     512kB time=00:00:02.68 bitrate=1565.0kbits/s speed=0.0114x    frame=   69 fps=0.3 q=22.0 size=     512kB time=00:00:02.72 bitrate=1542.0kbits/s speed=0.0113x    frame=   70 fps=0.3 q=22.0 size=     512kB time=00:00:02.76 bitrate=1519.7kbits/s speed=0.0113x    frame=   71 fps=0.3 q=22.0 size=     512kB time=00:00:02.80 bitrate=1498.0kbits/s speed=0.0113x    frame=   72 fps=0.3 q=22.0 size=     512kB time=00:00:02.84 bitrate=1476.9kbits/s speed=0.0113x    frame=   73 fps=0.3 q=23.0 size=     512kB time=00:00:02.88 bitrate=1456.3kbits/s speed=0.0114x    Error while decoding stream #0:0: Invalid data found when processing input
frame=   73 fps=0.3 q=23.0 size=     512kB time=00:00:02.88 bitrate=1456.3kbits/s speed=0.0112x    frame=   73 fps=0.3 q=23.0 Lsize=     749kB time=00:00:02.88 bitrate=2130.1kbits/s speed=0.0111x    
video:687kB audio:0kB subtitle:0kB other streams:0kB global headers:0kB muxing overhead: 9.062620%
[libx264 @ 0x5555555dd680] frame I:1     Avg QP:11.93  size:111078
[libx264 @ 0x5555555dd680] frame P:72    Avg QP:22.90  size:  8223
[libx264 @ 0x5555555dd680] mb I  I16..4: 61.6% 27.6% 10.8%
[libx264 @ 0x5555555dd680] mb P  I16..4:  3.5%  5.4%  0.7%  P16..4: 29.2%  7.8%  5.4%  0.0%  0.0%    skip:48.0%
[libx264 @ 0x5555555dd680] 8x8 transform intra:52.5% inter:9.6%
[libx264 @ 0x5555555dd680] coded y,uvDC,uvAC intra: 12.3% 30.6% 17.6% inter: 9.4% 7.0% 2.3%
[libx264 @ 0x5555555dd680] i16 v,h,dc,p: 56% 18% 23%  3%
[libx264 @ 0x5555555dd680] i8 v,h,dc,ddl,ddr,vr,hd,vl,hu:  7% 11% 74%  2%  1%  1%  2%  1%  1%
[libx264 @ 0x5555555dd680] i4 v,h,dc,ddl,ddr,vr,hd,vl,hu: 35% 31% 22%  2%  2%  2%  1%  2%  3%
[libx264 @ 0x5555555dd680] i8c dc,h,v,p: 61% 21%  9%  8%
[libx264 @ 0x5555555dd680] Weighted P-Frames: Y:0.0% UV:0.0%
[libx264 @ 0x5555555dd680] ref P L0: 47.7%  3.0% 24.0% 11.2%  7.9%  6.1%
[libx264 @ 0x5555555dd680] kb/s:1926.38
Exiting normally, received signal 2.
/home/pmorelr/apps/basilisk/src/viscosity.h:119:error: [Thread debugging using libthread_db enabled]
/home/pmorelr/apps/basilisk/src/viscosity.h:119:error: Using host libthread_db library "/lib/x86_64-linux-gnu/libthread_db.so.1".
/home/pmorelr/apps/basilisk/src/viscosity.h:119:error: [New Thread 0x7fffefb83700 (LWP 2440644)]
/home/pmorelr/apps/basilisk/src/viscosity.h:119:error: [New Thread 0x7fffef382700 (LWP 2440645)]
/home/pmorelr/apps/basilisk/src/viscosity.h:119:error: [New Thread 0x7fffeeb81700 (LWP 2440646)]
/home/pmorelr/apps/basilisk/src/viscosity.h:119:error: [New Thread 0x7fffee380700 (LWP 2440647)]
/home/pmorelr/apps/basilisk/src/viscosity.h:119:error: [New Thread 0x7fffedb7f700 (LWP 2440648)]
/home/pmorelr/apps/basilisk/src/viscosity.h:119:error: [New Thread 0x7fffed37e700 (LWP 2440649)]
/home/pmorelr/apps/basilisk/src/viscosity.h:119:error: [New Thread 0x7fffecb7d700 (LWP 2440650)]
/home/pmorelr/apps/basilisk/src/viscosity.h:119:error: [New Thread 0x7fffe7fff700 (LWP 2440651)]
/home/pmorelr/apps/basilisk/src/viscosity.h:119:error: [New Thread 0x7fffe77fe700 (LWP 2440652)]
/home/pmorelr/apps/basilisk/src/viscosity.h:119:error: [New Thread 0x7fffe6ffd700 (LWP 2440653)]
/home/pmorelr/apps/basilisk/src/viscosity.h:119:error: [New Thread 0x7fffe67fc700 (LWP 2440654)]
/home/pmorelr/apps/basilisk/src/viscosity.h:119:error: [New Thread 0x7fffe5ffb700 (LWP 2440655)]
/home/pmorelr/apps/basilisk/src/viscosity.h:119:error: [New Thread 0x7fffe57fa700 (LWP 2440656)]
/home/pmorelr/apps/basilisk/src/viscosity.h:119:error: [New Thread 0x7fffe4ff9700 (LWP 2440657)]
/home/pmorelr/apps/basilisk/src/viscosity.h:119:error: [New Thread 0x7fffaffff700 (LWP 2440658)]
/home/pmorelr/apps/basilisk/src/viscosity.h:119:error: [New Thread 0x7fffaf7fe700 (LWP 2440659)]
/home/pmorelr/apps/basilisk/src/viscosity.h:119:error: [New Thread 0x7fffaeffd700 (LWP 2440660)]
/home/pmorelr/apps/basilisk/src/viscosity.h:119:error: [New Thread 0x7fffae7fc700 (LWP 2440661)]
/home/pmorelr/apps/basilisk/src/viscosity.h:119:error: [New Thread 0x7fffadffb700 (LWP 2440662)]
/home/pmorelr/apps/basilisk/src/viscosity.h:119:error: [New Thread 0x7fffad7fa700 (LWP 2440663)]
/home/pmorelr/apps/basilisk/src/viscosity.h:119:error: Thread 1 "microlayer20" received signal SIGINT, Interrupt.
